<?xml version="1.0" encoding="UTF-8" standalone="yes"?>
<svg version="1.2" width="1109.000000pt" height="1109.000000pt" viewBox="0 0 1109.000000 1109.000000" preserveAspectRatio="xMidYMid meet" baseProfile="tiny-ps" xmlns="http://www.w3.org/2000/svg">
  <title>bimi-svg-tiny-12-ps</title>
  <g transform="translate(0.000000,1109.000000) scale(0.100000,-0.100000)" fill="#000000" stroke="none">
    <path d="M5340 10081 c-73 -6 -74 -7 -92 -41 -33 -66 -158 -330 -158 -335 0&#xA;-2 -18 -42 -40 -89 -79 -168 -118 -252 -159 -340 -23 -49 -55 -116 -71 -150&#xA;-15 -33 -57 -123 -94 -199 -36 -76 -66 -140 -66 -142 0 -2 -24 -54 -54 -117&#xA;-90 -190 -138 -291 -157 -335 -13 -30 -24 -43 -38 -43 -11 0 -21 4 -23 8 -1 5&#xA;-32 28 -68 52 -36 24 -67 46 -70 50 -3 4 -39 30 -80 58 -41 28 -109 76 -150&#xA;105 -90 64 -266 189 -485 344 -88 63 -187 132 -220 155 -33 23 -62 44 -65 48&#xA;-3 4 -34 26 -70 50 -36 24 -85 58 -109 77 -24 18 -49 33 -56 33 -22 0 -291&#xA;-215 -439 -352 l-70 -64 105 -74 c57 -40 140 -99 184 -130 44 -31 109 -77 145&#xA;-102 36 -25 117 -82 180 -127 144 -102 229 -162 400 -282 74 -52 158 -111 185&#xA;-130 28 -20 79 -55 115 -79 36 -24 67 -47 70 -50 3 -4 47 -36 99 -71 51 -35&#xA;106 -73 122 -84 16 -11 29 -27 29 -36 0 -9 -43 -105 -95 -213 -52 -108 -95&#xA;-198 -95 -200 0 -2 -34 -74 -75 -161 -41 -86 -75 -159 -75 -161 0 -3 -29 -64&#xA;-64 -137 -35 -73 -79 -166 -99 -207 -86 -184 -122 -261 -163 -347 -24 -51 -44&#xA;-97 -44 -102 0 -11 2645 -5 2662 5 5 3 39 14 75 25 l67 19 36 -24 36 -23 547&#xA;-5 c301 -2 546 -1 545 3 -2 4 -73 54 -158 111 -166 112 -161 105 -151 183 0 6&#xA;22 17 49 24 26 7 58 17 72 22 14 5 50 15 80 23 30 8 100 28 155 44 55 17 150&#xA;44 210 61 61 17 121 35 135 40 14 5 45 14 70 21 25 7 70 20 100 30 30 10 75&#xA;23 100 30 80 23 115 33 130 38 15 5 83 25 205 60 39 11 133 39 210 62 235 71&#xA;367 111 435 130 36 10 112 32 170 50 58 17 119 35 135 40 164 45 489 141 493&#xA;145 3 2 -7 28 -21 57 -164 339 -260 518 -279 518 -11 0 -160 -44 -343 -100&#xA;-82 -26 -301 -90 -480 -142 -38 -11 -95 -28 -125 -38 -30 -10 -86 -27 -125&#xA;-38 -145 -42 -282 -83 -340 -101 -33 -10 -80 -24 -105 -31 -25 -7 -65 -19 -90&#xA;-27 -25 -8 -74 -23 -110 -33 -82 -22 -261 -75 -320 -94 -198 -63 -242 -76&#xA;-250 -71 -13 8 -13 38 0 84 9 34 33 153 51 251 4 25 13 68 19 95 6 28 15 70&#xA;19 95 5 25 15 79 24 120 8 41 17 86 20 100 12 64 77 390 86 430 6 25 22 106&#xA;37 180 61 314 105 540 120 605 8 39 19 95 24 125 6 30 15 75 20 100 10 42 22&#xA;108 36 190 6 35 6 35 -68 72 -170 85 -503 222 -518 213 -4 -2 -11 -22 -14 -42&#xA;-22 -131 -48 -273 -56 -303 -10 -40 -23 -109 -60 -305 -7 -33 -15 -78 -20&#xA;-100 -5 -22 -14 -67 -20 -100 -6 -33 -16 -78 -20 -100 -5 -22 -30 -148 -55&#xA;-280 -75 -389 -141 -724 -155 -790 -5 -22 -11 -53 -14 -70 -3 -16 -10 -52 -15&#xA;-80 -6 -27 -15 -75 -21 -105 -5 -30 -15 -77 -20 -105 -11 -50 -17 -80 -46&#xA;-245 -8 -47 -23 -121 -32 -165 l-17 -80 -99 -32 c-84 -28 -102 -31 -121 -20&#xA;-21 11 -307 214 -345 244 -8 7 -114 82 -235 168 -121 86 -229 163 -240 171&#xA;-11 8 -72 52 -136 97 -64 45 -168 119 -230 163 -63 45 -131 92 -151 105 -21&#xA;13 -40 30 -43 38 -3 7 21 68 54 135 33 66 69 143 81 170 12 27 53 112 91 190&#xA;38 77 69 147 69 154 0 6 5 12 10 12 6 0 10 6 10 13 0 6 29 72 65 145 36 73 65&#xA;135 65 139 0 3 27 60 59 127 68 138 161 337 161 342 0 2 43 92 95 200 52 108&#xA;95 198 95 200 0 2 36 77 80 168 44 90 80 169 80 174 0 20 -424 28 -630 13z&#xA;m-540 -2846 c129 -93 507 -358 723 -507 54 -37 54 -36 28 -58 -13 -11 -32 -20&#xA;-43 -20 -11 0 -48 -9 -82 -20 -33 -11 -133 -40 -221 -65 -88 -25 -189 -54&#xA;-225 -65 -36 -11 -71 -20 -78 -20 -7 0 -20 -4 -30 -9 -9 -5 -37 -15 -62 -21&#xA;-25 -7 -65 -20 -90 -28 -25 -8 -58 -18 -75 -22 -58 -16 -380 -111 -412 -122&#xA;-55 -20 -57 -1 -12 92 23 47 54 112 69 145 15 33 51 110 80 170 29 61 68 143&#xA;86 183 67 142 103 219 158 335 65 137 46 133 186 32z"/>
    <path d="M1420 7268 c-8 -24 -17 -47 -21 -53 -3 -5 -19 -46 -33 -90 -15 -44&#xA;-31 -89 -35 -100 -8 -19 -34 -101 -67 -215 -9 -30 -20 -68 -25 -85 -8 -24 -7&#xA;-32 7 -40 9 -5 46 -29 83 -51 36 -23 113 -70 171 -106 58 -36 177 -109 265&#xA;-163 88 -54 197 -123 243 -152 l83 -53 595 -6 c327 -2 594 -1 594 3 0 4 -37&#xA;30 -83 57 -91 55 -539 333 -717 447 -63 40 -152 95 -198 123 -168 104 -660&#xA;412 -745 468 -49 32 -92 58 -96 58 -4 0 -14 -19 -21 -42z"/>
    <path d="M10045 6401 c-22 -16 -71 -45 -110 -66 -38 -21 -116 -64 -173 -96&#xA;-57 -33 -108 -59 -113 -59 -5 0 -9 -6 -9 -13 0 -11 46 -13 252 -10 139 2 253&#xA;5 254 6 3 3 -34 226 -42 250 -7 22 -11 21 -59 -12z"/>
    <path d="M8125 5929 c-16 -4 -63 -13 -102 -19 -40 -7 -73 -16 -73 -21 0 -5 -4&#xA;-8 -9 -6 -4 1 -38 -17 -74 -41 -158 -104 -240 -299 -209 -499 24 -154 108&#xA;-279 239 -356 75 -43 112 -54 218 -63 141 -11 278 34 379 127 49 44 124 145&#xA;115 153 -4 2 -60 17 -187 49 -41 10 -44 9 -80 -26 -101 -98 -271 -103 -367&#xA;-10 -133 129 -100 385 58 459 99 46 249 24 311 -45 16 -18 19 -18 84 0 37 11&#xA;88 24 115 30 28 6 47 16 47 25 0 7 -29 45 -65 82 -94 101 -159 131 -350 166&#xA;-11 2 -33 0 -50 -5z"/>
    <path d="M9935 5930 c-11 -5 -39 -9 -62 -9 -44 -1 -159 -54 -201 -93 -12 -12&#xA;-34 -46 -49 -76 -52 -107 -25 -241 62 -305 48 -35 114 -65 254 -117 119 -44&#xA;151 -69 151 -116 0 -67 -67 -102 -164 -83 -58 11 -110 48 -138 99 -10 19 -22&#xA;35 -26 35 -4 0 -53 -11 -109 -25 -68 -17 -103 -30 -103 -39 0 -23 67 -124 112&#xA;-168 24 -23 74 -56 111 -74 67 -31 69 -31 200 -27 120 4 137 7 185 31 112 58&#xA;172 150 172 262 0 140 -70 213 -284 296 -205 80 -230 98 -211 159 9 29 62 60&#xA;103 60 60 0 142 -55 163 -109 6 -15 15 -21 24 -17 9 3 58 16 110 28 52 13 95&#xA;26 95 31 0 17 -44 94 -75 133 -42 51 -139 103 -213 114 -31 4 -64 11 -72 13&#xA;-8 3 -24 2 -35 -3z"/>
    <path d="M1355 5920 c-90 -14 -132 -30 -207 -79 -142 -92 -210 -226 -210 -414&#xA;0 -321 260 -540 591 -499 114 14 195 53 273 133 97 99 138 205 138 354 0 156&#xA;-43 258 -153 367 -110 108 -278 162 -432 138z m188 -241 c54 -27 103 -74 130&#xA;-124 32 -58 32 -222 0 -280 -67 -125 -213 -169 -349 -105 -66 32 -92 59 -124&#xA;132 -24 55 -36 162 -22 191 6 12 13 34 16 48 10 48 65 109 119 135 69 32 169&#xA;33 230 3z"/>
    <path d="M2515 5924 c-128 -15 -214 -55 -300 -141 -195 -191 -187 -540 17&#xA;-728 35 -32 91 -71 125 -87 143 -67 353 -61 445 12 49 40 57 38 51 -10 l-6&#xA;-40 102 0 101 0 0 93 c0 50 -3 175 -7 277 l-6 185 -226 -2 c-157 -1 -226 -4&#xA;-225 -12 1 -6 2 -49 3 -95 l1 -85 53 4 c188 15 197 15 197 -4 0 -28 -68 -100&#xA;-121 -126 -99 -51 -247 -25 -328 56 -56 56 -75 110 -75 214 1 95 6 114 56 177&#xA;83 106 263 118 374 25 l32 -27 78 21 c44 12 94 24 112 26 18 3 35 9 38 14 3 5&#xA;-14 34 -38 64 -74 95 -178 156 -305 181 -73 14 -88 14 -148 8z"/>
    <path d="M3805 5916 c-225 -46 -335 -255 -218 -414 55 -74 109 -106 296 -172&#xA;141 -51 167 -70 167 -123 0 -41 -15 -63 -51 -76 -95 -33 -211 14 -253 103&#xA;l-16 34 -67 -20 c-38 -10 -87 -22 -111 -25 -41 -5 -43 -7 -37 -31 12 -46 97&#xA;-158 147 -192 80 -55 126 -71 220 -77 198 -13 328 50 394 192 44 94 27 188&#xA;-47 270 -57 62 -134 105 -272 152 -114 38 -165 68 -173 100 -10 37 5 61 52 84&#xA;39 19 51 20 82 10 60 -18 100 -48 122 -91 15 -29 26 -40 36 -36 9 3 59 17 111&#xA;31 53 14 98 27 100 29 3 2 -8 26 -23 53 -63 111 -161 180 -285 202 -78 13 -95&#xA;13 -174 -3z"/>
    <path d="M4442 5425 l3 -490 360 0 360 0 -1 110 -1 109 -144 -2 c-79 -1 -188&#xA;-5 -241 -8 l-98 -7 0 94 0 94 185 -3 185 -4 0 109 0 108 -186 0 -186 0 0 80&#xA;-1 80 236 0 237 0 0 110 0 110 -355 0 -355 0 2 -490z"/>
    <path d="M5364 5908 c-2 -4 -1 -226 2 -493 l7 -486 116 3 116 3 2 150 c1 83 2&#xA;155 2 160 1 6 26 9 58 9 55 -1 59 -3 76 -35 10 -19 50 -90 90 -159 l72 -125&#xA;128 -3 c92 -2 127 1 127 9 0 7 -15 35 -34 63 -18 28 -59 96 -91 151 -31 55&#xA;-63 107 -71 116 -20 22 -18 26 21 45 67 32 122 119 139 220 8 48 -17 179 -39&#xA;204 -8 9 -15 21 -15 26 0 14 -60 69 -95 86 -92 47 -112 52 -215 55 -260 7&#xA;-392 8 -396 1z m476 -246 c33 -33 40 -45 40 -78 0 -91 -44 -121 -179 -126&#xA;l-93 -3 -3 123 -2 122 98 0 98 0 41 -38z"/>
    <path d="M6173 5895 c3 -11 24 -67 47 -125 23 -58 50 -127 60 -155 36 -98 130&#xA;-340 140 -360 5 -11 33 -83 61 -160 29 -77 57 -146 62 -153 7 -9 42 -12 130&#xA;-10 l121 3 41 105 c37 95 64 164 196 505 44 115 139 366 139 369 0 0 -57 0&#xA;-126 0 l-127 -1 -61 -169 c-66 -183 -162 -472 -171 -516 -7 -38 -22 -35 -31 5&#xA;-10 47 -125 391 -144 432 -15 32 -40 105 -60 173 -10 35 -20 65 -23 68 -2 3&#xA;-62 6 -132 7 -122 2 -126 2 -122 -18z"/>
    <path d="M7268 5634 c-2 -159 -3 -381 -3 -494 l0 -205 115 0 115 0 3 488 2&#xA;487 -92 0 c-51 0 -103 3 -115 6 l-23 6 -2 -288z"/>
    <path d="M8750 5525 c0 -214 -3 -434 -7 -487 l-6 -98 361 0 362 0 0 108 0 107&#xA;-246 -3 -247 -3 7 23 c3 13 6 53 6 91 l0 67 185 0 185 0 0 100 0 100 -185 0&#xA;-185 0 0 85 0 86 238 -1 237 -1 3 108 3 108 -356 0 -355 0 0 -390z"/>
    <path d="M2744 4682 c-7 -6 -16 -22 -19 -35 -4 -12 -23 -56 -42 -97 -20 -41&#xA;-50 -106 -68 -145 -18 -38 -54 -115 -80 -170 -26 -55 -60 -127 -75 -160 -15&#xA;-33 -48 -104 -74 -157 -25 -53 -59 -125 -75 -160 -16 -35 -49 -106 -74 -158&#xA;-42 -89 -145 -310 -221 -474 -18 -39 -47 -101 -65 -137 -17 -36 -31 -72 -31&#xA;-80 0 -23 231 -319 392 -504 l35 -39 16 34 c37 81 122 264 207 445 23 50 54&#xA;115 67 145 61 132 163 349 254 539 38 79 69 145 69 147 0 3 66 144 165 349 28&#xA;61 60 128 70 150 23 53 76 165 169 358 42 87 76 160 76 161 0 1 -154 2 -342 2&#xA;-260 -1 -344 -4 -354 -14z"/>
    <path d="M4447 4682 c12 -9 48 -33 80 -53 32 -19 101 -62 153 -94 52 -32 129&#xA;-79 170 -105 192 -121 312 -196 327 -205 9 -5 61 -38 115 -72 54 -35 100 -63&#xA;103 -63 2 0 42 -24 87 -53 46 -29 109 -68 141 -86 54 -31 86 -65 70 -74 -5 -3&#xA;-39 -22 -78 -42 -38 -21 -83 -46 -100 -55 -236 -135 -1303 -746 -1395 -800&#xA;-145 -85 -179 -104 -240 -138 -25 -13 -49 -28 -55 -32 -5 -4 -35 -21 -65 -37&#xA;-30 -17 -95 -54 -145 -83 -49 -28 -108 -62 -130 -75 -22 -12 -101 -58 -175&#xA;-100 -74 -43 -160 -91 -190 -108 -30 -17 -72 -41 -92 -54 -21 -13 -42 -23 -48&#xA;-23 -5 0 -10 -4 -10 -10 0 -5 -4 -10 -9 -10 -5 0 -53 -25 -107 -56 -55 -31&#xA;-130 -74 -169 -95 -38 -21 -71 -42 -73 -47 -1 -5 32 -38 75 -73 43 -35 80 -66&#xA;83 -69 16 -17 207 -165 276 -213 l82 -57 263 152 c145 83 278 158 294 166 17&#xA;8 41 23 55 32 14 9 50 30 80 47 30 17 72 40 93 52 20 11 52 29 70 40 17 10&#xA;122 70 232 133 110 63 225 129 255 146 54 29 1018 583 1235 708 61 35 116 64&#xA;124 64 14 0 12 -29 -7 -120 -6 -25 -15 -70 -21 -100 -6 -30 -22 -116 -37 -190&#xA;-14 -74 -30 -155 -35 -180 -4 -25 -13 -67 -18 -95 -6 -27 -15 -75 -20 -105 -5&#xA;-30 -16 -86 -24 -125 -8 -38 -23 -110 -32 -160 -9 -49 -20 -108 -25 -130 -5&#xA;-22 -14 -67 -20 -100 -6 -33 -16 -78 -21 -100 -4 -22 -20 -103 -34 -180 -14&#xA;-77 -30 -158 -35 -180 -4 -22 -13 -65 -19 -95 -6 -30 -12 -66 -15 -80 -19 -97&#xA;-49 -244 -60 -290 -7 -30 -11 -61 -8 -68 6 -18 615 -17 630 1 10 11 19 51 42&#xA;187 9 53 47 248 59 305 5 22 15 67 21 100 20 99 31 158 41 200 4 22 24 126 44&#xA;230 19 105 40 204 45 221 6 17 10 40 10 51 0 12 9 61 20 110 10 48 31 151 45&#xA;228 14 77 29 158 34 180 5 22 15 67 21 100 7 33 16 80 21 105 32 155 59 303&#xA;59 323 0 23 26 97 34 97 2 0 45 -26 95 -57 296 -188 371 -236 516 -328 166&#xA;-105 899 -565 958 -600 69 -41 512 -320 517 -325 3 -3 18 -11 33 -19 27 -14&#xA;29 -14 89 45 133 130 378 379 378 386 0 3 -17 16 -37 29 -43 25 -228 141 -386&#xA;241 -59 37 -112 68 -117 68 -6 0 -10 5 -10 10 0 6 -4 10 -10 10 -5 0 -107 62&#xA;-227 138 -120 77 -292 185 -383 241 -91 57 -181 113 -200 126 -19 12 -81 52&#xA;-138 89 -56 36 -104 66 -107 66 -2 0 -96 58 -209 129 -113 71 -230 143 -259&#xA;160 -68 39 -92 64 -75 78 11 9 232 135 518 295 25 14 74 42 110 63 36 21 90&#xA;51 120 68 30 16 67 38 82 49 14 10 28 18 31 18 3 0 34 16 69 36 34 20 83 48&#xA;108 62 81 45 244 138 316 181 39 22 77 41 83 41 7 0 63 -35 124 -77 183 -129&#xA;359 -253 499 -352 186 -132 386 -273 412 -291 83 -56 397 -284 402 -291 9 -15&#xA;34 -10 40 9 8 23 63 171 76 202 6 14 14 34 19 45 4 11 26 76 49 145 22 69 45&#xA;140 51 158 6 19 7 37 3 41 -5 5 -83 60 -174 123 -91 63 -205 143 -255 178 -49&#xA;35 -112 79 -139 97 l-48 33 -1168 0 c-866 0 -1176 -3 -1201 -12 -19 -6 -71&#xA;-35 -117 -65 -45 -29 -84 -53 -87 -53 -2 0 -38 -21 -81 -46 -45 -27 -80 -42&#xA;-86 -36 -9 9 0 58 27 152 7 25 10 48 6 53 -4 4 -149 6 -322 5 l-314 -3 -6 -45&#xA;c-4 -25 -12 -72 -18 -105 -6 -33 -13 -71 -15 -85 -2 -14 -5 -33 -5 -42 -1 -10&#xA;-7 -18 -15 -18 -8 0 -114 65 -235 145 l-219 145 -584 5 c-554 4 -582 4 -561&#xA;-13z"/>
  </g>
</svg>